# Blender v2.79 (sub 0) OBJ File: 'Murph.blend'
# www.blender.org
mtllib LivingRoomDrywall.mtl
o Dry_Wall_Living_Room_Vert.050
v 4.384993 4.469815 -1.276334
v 4.384993 1.650415 -1.276334
v -0.028256 4.469815 -1.276334
v -0.028256 1.650415 -1.276334
v 4.734242 4.469815 -1.384284
v 4.734242 1.650415 -1.384284
v 8.391843 4.469815 -1.384284
v 8.391843 1.650415 -1.384284
v 8.766493 4.469815 -1.612884
v 8.766493 4.469815 -1.968483
v 8.766493 2.869615 -1.968483
v 8.766493 2.869615 -5.181584
v 8.766493 1.650415 -1.612884
v 8.766493 1.650415 -5.403834
v 8.766493 4.469815 -5.403834
v 8.766493 4.469815 -5.181584
v 9.071293 4.469815 -1.968483
v 9.071293 2.869615 -1.968483
v 9.071293 2.869615 -5.181584
v 9.071293 4.469815 -5.181584
v 8.385493 4.469815 -5.651484
v 8.385493 1.650415 -5.651484
v 4.880294 4.469815 -5.651484
v 4.880294 1.650415 -5.651484
v 4.880294 4.469815 -5.537184
v 4.880294 1.650415 -5.537184
v -0.358457 4.469815 -5.537184
v -0.358457 1.650415 -5.537184
v -0.358457 4.469815 -2.654284
v -0.358457 1.650415 -2.654284
v -0.358457 4.520029 -5.537184
v -0.358457 4.520029 -2.654284
v 8.385493 1.650415 -5.403834
v 8.385493 4.873040 -5.403834
v 8.385493 4.873040 -5.651484
v 8.385493 4.469814 -5.403834
v 8.766493 4.873040 -5.403834
v 8.766493 4.873040 -1.612884
v 8.766493 4.873040 -1.968483
v 8.766493 4.873040 -5.181584
v 8.385493 4.469815 -5.689584
v 8.385493 4.873040 -5.689584
vt 0.587687 0.431998
vt 0.295399 0.431998
vt 0.295399 0.000977
vt 0.587687 0.000977
vt 0.882049 0.000977
vt 0.882049 0.358197
vt 0.589760 0.358197
vt 0.589760 0.000977
vt 0.337201 0.804196
vt 0.337201 0.769466
vt 0.503095 0.769466
vt 0.503094 0.455657
vt 0.337201 0.455658
vt 0.337201 0.433951
vt 0.629489 0.433951
vt 0.629489 0.804196
vt 0.962729 0.749713
vt 0.962729 0.905997
vt 0.931130 0.905997
vt 0.931130 0.749713
vt 0.925694 0.314785
vt 0.925694 0.000977
vt 0.957293 0.000977
vt 0.957293 0.314785
vt 0.964802 0.590235
vt 0.964802 0.433951
vt 0.996401 0.433951
vt 0.996401 0.590235
vt 0.001037 0.856911
vt 0.001037 0.514574
vt 0.293325 0.514574
vt 0.293325 0.856911
vt 0.987114 0.000977
vt 0.998963 0.000977
vt 0.998963 0.276334
vt 0.987114 0.276334
vt 0.293325 0.000977
vt 0.293325 0.512621
vt 0.001037 0.512621
vt 0.001037 0.000977
vt 0.923851 0.717464
vt 0.923851 0.999023
vt 0.631563 0.999023
vt 0.631563 0.717464
vt 0.929057 0.717464
vt 0.929057 0.999023
vt 0.636769 0.715511
vt 0.631563 0.715511
vt 0.631563 0.433951
vt 0.636769 0.433951
vt 0.929057 0.433951
vt 0.929057 0.715511
vt 0.962729 0.433951
vt 0.962729 0.747760
vt 0.931130 0.747760
vt 0.931130 0.433951
vt 0.985040 0.040358
vt 0.985040 0.000977
vt 0.959366 0.000977
vt 0.959366 0.040358
vt 0.985040 0.315715
vt 0.959366 0.315715
vt 0.884122 0.040358
vt 0.923620 0.040358
vt 0.923620 0.315715
vt 0.884122 0.315715
vt 0.923620 0.000977
vt 0.884122 0.000977
vt 0.295399 0.769466
vt 0.295399 0.455658
vt 0.295399 0.433951
vt 0.295399 0.804196
vt 0.593710 0.360151
vt 0.589760 0.360151
vt 0.589760 0.399532
vt 0.593710 0.399532
vn 0.0000 0.0000 -1.0000
vn -1.0000 0.0000 0.0000
vn 0.0000 0.0000 1.0000
vn 0.0000 1.0000 0.0000
vn 1.0000 0.0000 0.0000
vn 0.0000 -1.0000 0.0000
usemtl DryWall
s off
f 1/1/1 2/2/1 4/3/1 3/4/1
f 5/5/1 7/6/1 8/7/1 6/8/1
f 9/9/2 10/10/2 11/11/2 12/12/2 16/13/2 15/14/2 14/15/2 13/16/2
f 16/17/3 12/18/3 19/19/3 20/20/3
f 12/21/4 11/22/4 18/23/4 19/24/4
f 11/25/1 10/26/1 17/27/1 18/28/1
f 21/29/3 23/30/3 24/31/3 22/32/3
f 23/33/5 25/34/5 26/35/5 24/36/5
f 25/37/3 27/38/3 28/39/3 26/40/3
f 27/41/5 29/42/5 30/43/5 28/44/5
f 27/41/5 31/45/5 32/46/5 29/42/5
f 29/47/2 32/48/2 31/49/2 27/50/2 28/51/2 30/52/2
f 20/53/6 17/54/6 10/55/6 16/56/6
f 36/57/2 34/58/2 35/59/2 21/60/2
f 33/61/2 36/57/2 21/60/2 22/62/2
f 15/63/3 36/64/3 33/65/3 14/66/3
f 34/67/3 36/64/3 15/63/3 37/68/3
f 16/13/2 10/10/2 39/69/2 40/70/2
f 15/14/2 16/13/2 40/70/2 37/71/2
f 10/10/2 9/9/2 38/72/2 39/69/2
f 35/73/2 42/74/2 41/75/2 21/76/2
