# Blender v2.79 (sub 0) OBJ File: 'Murph.blend'
# www.blender.org
mtllib NUTID Stove.mtl
o Vert.052
v -0.177596 0.287072 -0.747069
v -0.177596 0.287072 0.011755
v -0.177596 0.314387 0.011755
v -0.177596 0.314387 -0.747069
v -0.177596 0.844315 0.011755
v -0.177596 0.844315 -0.747069
v -0.177596 0.887388 0.011755
v -0.177596 0.887388 -0.747069
v -0.200606 0.961440 0.011755
v -0.200606 0.961440 -0.747069
v -0.115825 0.997081 0.011755
v -0.115825 0.997081 -0.747069
v -0.177596 0.133017 -0.747069
v -0.177596 0.133017 0.011755
v -0.162654 0.290686 -0.747069
v -0.162654 0.290686 0.011755
v -0.192947 0.887388 -0.747069
v -0.192947 0.844315 -0.747069
v -0.192947 0.844315 0.011755
v -0.192947 0.887388 0.011755
v -0.177596 0.920025 -0.747069
v -0.177596 0.920025 0.011755
v -0.115825 0.993888 -0.747069
v -0.115825 0.993888 0.011755
v 0.609804 0.287072 -0.747069
v 0.609804 0.287072 0.011755
v 0.609804 0.314387 0.011755
v 0.609804 0.314387 -0.747069
v 0.609804 0.844315 0.011755
v 0.609804 0.844315 -0.747069
v 0.609804 0.887388 0.011755
v 0.609804 0.887388 -0.747069
v 0.586794 0.961440 0.011755
v 0.586794 0.961440 -0.747069
v 0.586794 0.997081 0.011755
v 0.586794 0.997081 -0.747069
v 0.609804 0.133017 -0.747069
v 0.609804 0.133017 0.011755
v 0.624746 0.290686 -0.747069
v 0.624746 0.290686 0.011755
v 0.609804 0.920025 -0.747069
v 0.609804 0.920025 0.011755
v 0.586794 0.993888 -0.747069
v 0.586794 0.993888 0.011755
v -0.200606 0.977664 -0.747069
v -0.200606 0.977664 0.011755
v 0.586794 0.977664 -0.747069
v 0.586794 0.977664 0.011755
v -0.217960 0.249994 -0.716334
v -0.220198 0.250349 -0.716334
v -0.222216 0.251377 -0.716334
v -0.223818 0.252979 -0.716334
v -0.224847 0.254998 -0.716334
v -0.225201 0.257236 -0.716334
v -0.224847 0.259474 -0.716334
v -0.223818 0.261492 -0.716334
v -0.222216 0.263094 -0.716334
v -0.220198 0.264123 -0.716334
v -0.217960 0.264477 -0.716334
v -0.215722 0.264123 -0.716334
v -0.213704 0.263094 -0.716334
v -0.212101 0.261492 -0.716334
v -0.211073 0.259474 -0.716334
v -0.210719 0.257236 -0.716334
v -0.211073 0.254998 -0.716334
v -0.212101 0.252979 -0.716334
v -0.213704 0.251377 -0.716334
v -0.215722 0.250349 -0.716334
v -0.217960 0.249994 -0.686460
v -0.220198 0.250349 -0.686460
v -0.222216 0.251377 -0.686460
v -0.223818 0.252979 -0.686460
v -0.224847 0.254998 -0.686460
v -0.225201 0.257236 -0.686460
v -0.224847 0.259474 -0.686460
v -0.223818 0.261492 -0.686460
v -0.222216 0.263094 -0.686460
v -0.220198 0.264123 -0.686460
v -0.217960 0.264477 -0.686460
v -0.215722 0.264123 -0.686460
v -0.213704 0.263094 -0.686460
v -0.212101 0.261492 -0.686460
v -0.211073 0.259474 -0.686460
v -0.210719 0.257236 -0.686460
v -0.211073 0.254998 -0.686460
v -0.212101 0.252979 -0.686460
v -0.213704 0.251377 -0.686460
v -0.215722 0.250349 -0.686460
v -0.175462 0.262547 -0.716334
v -0.175462 0.265596 -0.716334
v -0.175462 0.258706 -0.716334
v -0.175462 0.254447 -0.716334
v -0.175462 0.265596 -0.686460
v -0.175462 0.262547 -0.686460
v -0.175462 0.258706 -0.686460
v -0.175462 0.254447 -0.686460
v -0.217960 0.249994 -0.364644
v -0.217960 0.249994 -0.012954
v -0.220198 0.250349 -0.364644
v -0.220198 0.250349 -0.012954
v -0.222216 0.251377 -0.364644
v -0.222216 0.251377 -0.012954
v -0.223818 0.252979 -0.364644
v -0.223818 0.252979 -0.012954
v -0.224847 0.254998 -0.364644
v -0.224847 0.254998 -0.012954
v -0.225201 0.257236 -0.364644
v -0.225201 0.257236 -0.012954
v -0.224847 0.259474 -0.364644
v -0.224847 0.259474 -0.012954
v -0.223818 0.261492 -0.364644
v -0.223818 0.261492 -0.012954
v -0.222216 0.263094 -0.364644
v -0.222216 0.263094 -0.012954
v -0.220198 0.264123 -0.364644
v -0.220198 0.264123 -0.012954
v -0.217960 0.264477 -0.364644
v -0.217960 0.264477 -0.012954
v -0.215722 0.264123 -0.364644
v -0.215722 0.264123 -0.012954
v -0.213704 0.263094 -0.364644
v -0.213704 0.263094 -0.012954
v -0.212101 0.261492 -0.364644
v -0.212101 0.261492 -0.012954
v -0.211073 0.259474 -0.364644
v -0.211073 0.259474 -0.012954
v -0.210719 0.257236 -0.364644
v -0.210719 0.257236 -0.012954
v -0.211073 0.254998 -0.364644
v -0.211073 0.254998 -0.012954
v -0.212101 0.252979 -0.364644
v -0.212101 0.252979 -0.012954
v -0.213704 0.251377 -0.364644
v -0.213704 0.251377 -0.012954
v -0.215722 0.250349 -0.364644
v -0.215722 0.250349 -0.012954
v -0.217960 0.249994 -0.042828
v -0.220198 0.250349 -0.042828
v -0.222216 0.251377 -0.042828
v -0.223818 0.252979 -0.042828
v -0.224847 0.254998 -0.042828
v -0.225201 0.257236 -0.042828
v -0.224847 0.259474 -0.042828
v -0.223818 0.261492 -0.042828
v -0.222216 0.263094 -0.042828
v -0.220198 0.264123 -0.042828
v -0.217960 0.264477 -0.042828
v -0.215722 0.264123 -0.042828
v -0.213704 0.263094 -0.042828
v -0.212101 0.261492 -0.042828
v -0.211073 0.259474 -0.042828
v -0.210719 0.257236 -0.042828
v -0.211073 0.254998 -0.042828
v -0.212101 0.252979 -0.042828
v -0.213704 0.251377 -0.042828
v -0.215722 0.250349 -0.042828
v -0.175462 0.262547 -0.012954
v -0.175462 0.265595 -0.012954
v -0.175462 0.258706 -0.012954
v -0.175462 0.254447 -0.012954
v -0.175462 0.265595 -0.042828
v -0.175462 0.262547 -0.042828
v -0.175462 0.258706 -0.042828
v -0.175462 0.254447 -0.042828
vt 0.047622 0.041975
vt 0.951814 0.041975
vt 0.951814 0.193240
vt 0.047622 0.193240
vt 0.047622 0.199945
vt 0.951814 0.199945
vt 0.951814 0.220060
vt 0.047622 0.220060
vt 0.951814 0.740390
vt 0.047622 0.740390
vt 0.951814 0.782683
vt 0.047622 0.782684
vt 0.047622 0.782684
vt 0.951814 0.782683
vt 0.047622 0.819039
vt 0.951814 0.819038
vt 0.951814 0.855393
vt 0.047622 0.855393
vt 0.047622 0.887254
vt 0.951814 0.887254
vt 0.951814 0.890389
vt 0.047622 0.890389
vt 0.047622 0.740390
vt 0.951814 0.740390
vt 0.006491 0.000000
vt 0.006491 0.000000
vt 0.006491 0.000000
vt 0.006491 0.000000
vt 0.006491 0.000000
vt 0.006491 0.000000
vt 0.006491 0.000000
vt 0.006491 0.000000
vt 0.047622 0.871324
vt 0.951814 0.871324
vt 0.074220 0.752165
vt 0.075131 0.752182
vt 0.074630 0.769996
vt 0.073719 0.769979
vt 0.092626 0.748619
vt 0.093518 0.749099
vt 0.092833 0.773466
vt 0.091941 0.772986
vt 0.077207 0.751699
vt 0.077591 0.751710
vt 0.077090 0.769525
vt 0.076707 0.769513
vt 0.081541 0.751471
vt 0.101696 0.751844
vt 0.101014 0.776119
vt 0.080859 0.775746
vt 0.080627 0.751915
vt 0.079944 0.776190
vt 0.099606 0.752121
vt 0.100059 0.752129
vt 0.099558 0.769944
vt 0.099105 0.769935
vt 0.101200 0.752671
vt 0.100699 0.770486
vt 0.094081 0.747383
vt 0.093396 0.771750
vt 0.076755 0.751691
vt 0.076254 0.769505
vt 0.072395 0.748246
vt 0.071710 0.772613
vt 0.753260 0.749281
vt 0.753260 0.774889
vt 0.175752 0.774888
vt 0.175752 0.749279
vt 0.080127 0.751442
vt 0.079445 0.775714
vt 0.098770 0.752102
vt 0.099153 0.752113
vt 0.098653 0.769927
vt 0.098269 0.769916
vt 0.076302 0.751682
vt 0.075801 0.769497
vt 0.099962 0.747492
vt 0.099277 0.771859
vt 0.102111 0.752688
vt 0.101610 0.770503
vt 0.764553 0.752331
vt 0.764553 0.778524
vt 0.173848 0.778524
vt 0.173849 0.752331
vt 0.074269 0.751333
vt 0.073586 0.775606
vt 0.379967 0.106976
vt 0.371425 0.106976
vt 0.371425 0.104735
vt 0.379967 0.104735
vt 0.371425 0.102706
vt 0.379967 0.102706
vt 0.371425 0.101089
vt 0.379967 0.101089
vt 0.379967 0.131672
vt 0.371425 0.131672
vt 0.371425 0.129838
vt 0.379967 0.129838
vt 0.371425 0.127683
vt 0.379967 0.127683
vt 0.371425 0.125417
vt 0.379967 0.125417
vt 0.371425 0.123261
vt 0.379967 0.123261
vt 0.371425 0.121428
vt 0.379967 0.121428
vt 0.563998 0.131672
vt 0.572540 0.131672
vt 0.572540 0.133699
vt 0.563998 0.133699
vt 0.572540 0.135940
vt 0.563998 0.135940
vt 0.572540 0.138176
vt 0.563998 0.138176
vt 0.572540 0.140188
vt 0.563998 0.140188
vt 0.391600 0.071204
vt 0.391600 0.101089
vt 0.381513 0.101089
vt 0.381513 0.071204
vt 0.381418 0.066177
vt 0.381124 0.064157
vt 0.391600 0.063102
vt 0.391600 0.066945
vt 0.401825 0.091791
vt 0.401740 0.094038
vt 0.391684 0.097754
vt 0.391652 0.093496
vt 0.379967 0.117278
vt 0.371425 0.117278
vt 0.371425 0.115020
vt 0.379967 0.115020
vt 0.371425 0.112933
vt 0.379967 0.112933
vt 0.371425 0.111221
vt 0.379967 0.111221
vt 0.404501 0.100675
vt 0.403864 0.101089
vt 0.403222 0.100793
vt 0.402637 0.099818
vt 0.402167 0.098258
vt 0.401858 0.096266
vt 0.402103 0.089745
vt 0.402549 0.088101
vt 0.403119 0.087019
vt 0.403756 0.086606
vt 0.404398 0.086901
vt 0.404983 0.087877
vt 0.405452 0.089437
vt 0.405762 0.091428
vt 0.405880 0.093657
vt 0.405795 0.095904
vt 0.405517 0.097949
vt 0.405071 0.099594
vt 0.371425 0.109212
vt 0.379967 0.109212
vt 0.471982 0.109212
vt 0.471982 0.106976
vt 0.471982 0.111221
vt 0.471982 0.112933
vt 0.471982 0.115020
vt 0.471982 0.117278
vt 0.471982 0.119486
vt 0.379967 0.119486
vt 0.471982 0.121427
vt 0.379967 0.121427
vt 0.471982 0.140188
vt 0.563998 0.141778
vt 0.471982 0.141778
vt 0.471982 0.138176
vt 0.471982 0.135940
vt 0.471982 0.133699
vt 0.471982 0.131672
vt 0.471982 0.123261
vt 0.471982 0.121428
vt 0.471982 0.125417
vt 0.471982 0.127683
vt 0.471982 0.129838
vt 0.471982 0.131672
vt 0.471982 0.102706
vt 0.471982 0.101089
vt 0.471982 0.104735
vt 0.400142 0.060995
vt 0.391600 0.060995
vt 0.391600 0.057953
vt 0.400142 0.057953
vt 0.391600 0.054120
vt 0.400142 0.054120
vt 0.391600 0.049870
vt 0.400142 0.049870
vt 0.391623 0.089654
vt 0.391600 0.086606
vt 0.380666 0.062555
vt 0.391600 0.060052
vt 0.381519 0.068415
vt 0.391600 0.071204
vt 0.572540 0.178460
vt 0.563998 0.178460
vt 0.563998 0.106976
vt 0.563998 0.104735
vt 0.572540 0.104735
vt 0.572540 0.106976
vt 0.563998 0.102706
vt 0.572540 0.102706
vt 0.563998 0.101089
vt 0.572540 0.101089
vt 0.563998 0.131672
vt 0.563998 0.129838
vt 0.572540 0.129838
vt 0.572540 0.131672
vt 0.563998 0.127683
vt 0.572540 0.127683
vt 0.563998 0.125416
vt 0.572540 0.125416
vt 0.563998 0.123261
vt 0.572540 0.123261
vt 0.563998 0.121427
vt 0.572540 0.121427
vt 0.379967 0.131672
vt 0.379967 0.133699
vt 0.371425 0.133699
vt 0.371425 0.131672
vt 0.379967 0.135940
vt 0.371425 0.135940
vt 0.379967 0.138176
vt 0.371425 0.138176
vt 0.379967 0.140188
vt 0.371425 0.140188
vt 0.371425 0.071204
vt 0.381513 0.071204
vt 0.381513 0.101088
vt 0.371425 0.101089
vt 0.401875 0.064781
vt 0.391729 0.067872
vt 0.391657 0.064038
vt 0.402130 0.062698
vt 0.395655 0.077308
vt 0.405828 0.079013
vt 0.405796 0.083271
vt 0.395740 0.079555
vt 0.563998 0.117278
vt 0.563998 0.115020
vt 0.572540 0.115020
vt 0.572540 0.117278
vt 0.563998 0.112933
vt 0.572540 0.112933
vt 0.563998 0.111221
vt 0.572540 0.111221
vt 0.392979 0.086192
vt 0.392409 0.085111
vt 0.391963 0.083467
vt 0.391685 0.081421
vt 0.391600 0.079174
vt 0.391718 0.076945
vt 0.392027 0.074954
vt 0.392497 0.073394
vt 0.393082 0.072418
vt 0.393724 0.072123
vt 0.394361 0.072536
vt 0.394931 0.073618
vt 0.395377 0.075262
vt 0.395622 0.081783
vt 0.395312 0.083775
vt 0.394843 0.085335
vt 0.394258 0.086310
vt 0.393615 0.086606
vt 0.563998 0.109212
vt 0.572540 0.109212
vt 0.405543 0.058514
vt 0.406067 0.059846
vt 0.406448 0.061679
vt 0.406648 0.063835
vt 0.406648 0.066101
vt 0.406448 0.068257
vt 0.406067 0.070090
vt 0.405543 0.071423
vt 0.404927 0.072123
vt 0.404279 0.072123
vt 0.403663 0.071423
vt 0.403139 0.070090
vt 0.402758 0.068257
vt 0.402558 0.066101
vt 0.402558 0.063835
vt 0.402758 0.061679
vt 0.403139 0.059846
vt 0.403663 0.058514
vt 0.404279 0.057813
vt 0.404927 0.057813
vt 0.563998 0.119486
vt 0.563998 0.121427
vt 0.379967 0.141778
vt 0.372124 0.071204
vt 0.372124 0.068162
vt 0.380666 0.068162
vt 0.380666 0.071204
vt 0.372124 0.064329
vt 0.380666 0.064329
vt 0.372124 0.060080
vt 0.380666 0.060080
vt 0.405880 0.072123
vt 0.405857 0.075171
vt 0.391600 0.060995
vt 0.402558 0.060995
vt 0.401815 0.067038
vt 0.391808 0.072123
vt 0.379967 0.178460
vt 0.371425 0.178460
vn -1.0000 0.0000 0.0000
vn -0.8459 -0.5333 0.0000
vn 0.0000 1.0000 0.0000
vn -0.8741 -0.4857 0.0000
vn -0.2351 0.9720 0.0000
vn 0.0000 0.0000 1.0000
vn 0.0000 0.0000 -1.0000
vn 0.0000 -1.0000 0.0000
vn -0.1880 0.9822 0.0000
vn 0.1565 0.9877 0.0000
vn 0.4540 0.8910 0.0000
vn 0.7071 0.7072 0.0000
vn 0.8910 0.4540 0.0000
vn 0.9877 0.1564 0.0000
vn 0.9877 -0.1564 0.0000
vn 0.8910 -0.4540 0.0000
vn 0.7071 -0.7072 0.0000
vn 0.4540 -0.8910 0.0000
vn 0.1565 -0.9877 0.0000
vn -0.1565 -0.9877 0.0000
vn -0.4540 -0.8910 0.0000
vn 0.0788 0.9969 0.0000
vn -0.9877 0.1564 0.0000
vn -0.8910 0.4540 0.0000
vn -0.7071 0.7072 0.0000
vn -0.4540 0.8910 0.0000
vn -0.1565 0.9877 0.0000
vn -0.9877 -0.1564 0.0000
vn -0.8910 -0.4540 0.0000
vn -0.7071 -0.7072 0.0000
vn 0.0653 -0.9979 0.0000
usemtl NUTID_Oven
s off
f 13/1/1 14/2/1 2/3/1 1/4/1
f 15/5/2 16/6/2 3/7/2 4/8/2
f 4/8/1 3/7/1 5/9/1 6/10/1
f 7/11/3 8/12/3 17/13/3 20/14/3
f 21/15/4 22/16/4 9/17/4 10/18/4
f 23/19/1 24/20/1 11/21/1 12/22/1
f 1/4/5 2/3/5 16/6/5 15/5/5
f 18/23/1 19/24/1 20/14/1 17/13/1
f 5/25/6 7/26/6 20/27/6 19/28/6
f 8/29/7 6/30/7 18/31/7 17/32/7
f 6/10/8 5/9/8 19/24/8 18/23/8
f 8/12/1 7/11/1 22/16/1 21/15/1
f 45/33/9 46/34/9 24/20/9 23/19/9
f 8/35/7 21/36/7 41/37/7 32/38/7
f 3/39/6 16/40/6 40/41/6 27/42/6
f 23/43/7 12/44/7 36/45/7 43/46/7
f 4/47/7 6/48/7 30/49/7 28/50/7
f 15/51/7 4/47/7 28/50/7 39/52/7
f 46/53/6 9/54/6 33/55/6 48/56/6
f 9/54/6 22/57/6 42/58/6 33/55/6
f 16/40/6 2/59/6 26/60/6 40/41/6
f 45/61/7 23/43/7 43/46/7 47/62/7
f 5/63/6 3/39/6 27/42/6 29/64/6
f 6/65/7 8/66/7 32/67/7 30/68/7
f 1/69/7 15/51/7 39/52/7 25/70/7
f 11/71/6 24/72/6 44/73/6 35/74/6
f 21/36/7 10/75/7 34/76/7 41/37/7
f 2/59/6 14/77/6 38/78/6 26/60/6
f 12/44/3 11/71/3 35/74/3 36/45/3
f 22/57/6 7/79/6 31/80/6 42/58/6
f 7/81/6 5/82/6 29/83/6 31/84/6
f 13/85/7 1/69/7 25/70/7 37/86/7
f 10/75/7 45/61/7 47/62/7 34/76/7
f 24/72/6 46/53/6 48/56/6 44/73/6
f 10/18/1 9/17/1 46/34/1 45/33/1
f 69/87/10 49/88/10 50/89/10 70/90/10
f 70/90/11 50/89/11 51/91/11 71/92/11
f 71/92/12 51/91/12 52/93/12 72/94/12
f 72/95/13 52/96/13 53/97/13 73/98/13
f 73/98/14 53/97/14 54/99/14 74/100/14
f 74/100/15 54/99/15 55/101/15 75/102/15
f 75/102/16 55/101/16 56/103/16 76/104/16
f 76/104/17 56/103/17 57/105/17 77/106/17
f 77/107/18 57/108/18 58/109/18 78/110/18
f 78/110/19 58/109/19 59/111/19 79/112/19
f 79/112/20 59/111/20 60/113/20 80/114/20
f 80/114/21 60/113/21 61/115/21 81/116/21
f 64/117/22 84/118/22 96/119/22 92/120/22
f 83/121/7 82/122/7 94/123/7 95/124/7
f 63/125/6 64/126/6 92/127/6 91/128/6
f 84/129/23 64/130/23 65/131/23 85/132/23
f 85/132/24 65/131/24 66/133/24 86/134/24
f 86/134/25 66/133/25 67/135/25 87/136/25
f 50/137/6 49/138/6 68/139/6 67/140/6 66/141/6 65/142/6 64/126/6 63/125/6 62/143/6 61/144/6 60/145/6 59/146/6 58/147/6 57/148/6 56/149/6 55/150/6 54/151/6 53/152/6 52/153/6 51/154/6
f 87/136/26 67/135/26 68/155/26 88/156/26
f 88/156/27 68/155/27 49/88/27 69/87/27
f 135/157/27 88/156/27 69/87/27 97/158/27
f 133/159/26 87/136/26 88/156/26 135/157/26
f 131/160/25 86/134/25 87/136/25 133/159/25
f 129/161/24 85/132/24 86/134/24 131/160/24
f 127/162/23 84/129/23 85/132/23 129/161/23
f 125/163/28 83/164/28 84/129/28 127/162/28
f 123/165/29 82/166/29 83/164/29 125/163/29
f 121/167/30 81/116/30 82/168/30 123/169/30
f 119/170/21 80/114/21 81/116/21 121/167/21
f 117/171/20 79/112/20 80/114/20 119/170/20
f 115/172/19 78/110/19 79/112/19 117/171/19
f 113/173/18 77/107/18 78/110/18 115/172/18
f 111/174/17 76/104/17 77/106/17 113/175/17
f 109/176/16 75/102/16 76/104/16 111/174/16
f 107/177/15 74/100/15 75/102/15 109/176/15
f 105/178/14 73/98/14 74/100/14 107/177/14
f 103/179/13 72/95/13 73/98/13 105/178/13
f 101/180/12 71/92/12 72/94/12 103/181/12
f 99/182/11 70/90/11 71/92/11 101/180/11
f 97/158/10 69/87/10 70/90/10 99/182/10
f 93/183/1 90/184/1 89/185/1 94/186/1
f 94/186/1 89/185/1 91/187/1 95/188/1
f 95/188/1 91/187/1 92/189/1 96/190/1
f 61/144/6 62/143/6 89/191/6 90/192/6
f 82/122/7 81/193/7 93/194/7 94/123/7
f 84/195/7 83/121/7 95/124/7 96/196/7
f 62/143/6 63/125/6 91/128/6 89/191/6
f 81/116/31 61/115/31 90/197/31 93/198/31
f 137/199/10 138/200/10 100/201/10 98/202/10
f 138/200/11 139/203/11 102/204/11 100/201/11
f 139/203/12 140/205/12 104/206/12 102/204/12
f 140/207/13 141/208/13 106/209/13 104/210/13
f 141/208/14 142/211/14 108/212/14 106/209/14
f 142/211/15 143/213/15 110/214/15 108/212/15
f 143/213/16 144/215/16 112/216/16 110/214/16
f 144/215/17 145/217/17 114/218/17 112/216/17
f 145/219/18 146/220/18 116/221/18 114/222/18
f 146/220/19 147/223/19 118/224/19 116/221/19
f 147/223/20 148/225/20 120/226/20 118/224/20
f 148/225/21 149/227/21 122/228/21 120/226/21
f 128/229/22 160/230/22 164/231/22 152/232/22
f 151/233/6 163/234/6 162/235/6 150/236/6
f 126/237/7 159/238/7 160/239/7 128/240/7
f 152/241/23 153/242/23 130/243/23 128/244/23
f 153/242/24 154/245/24 132/246/24 130/243/24
f 154/245/25 155/247/25 134/248/25 132/246/25
f 100/249/7 102/250/7 104/251/7 106/252/7 108/253/7 110/254/7 112/255/7 114/256/7 116/257/7 118/258/7 120/259/7 122/260/7 124/261/7 126/237/7 128/240/7 130/262/7 132/263/7 134/264/7 136/265/7 98/266/7
f 155/247/26 156/267/26 136/268/26 134/248/26
f 156/267/27 137/199/27 98/202/27 136/268/27
f 97/269/6 135/270/6 133/271/6 131/272/6 129/273/6 127/274/6 125/275/6 123/276/6 121/277/6 119/278/6 117/279/6 115/280/6 113/281/6 111/282/6 109/283/6 107/284/6 105/285/6 103/286/6 101/287/6 99/288/6
f 135/157/27 97/158/27 137/199/27 156/267/27
f 133/159/26 135/157/26 156/267/26 155/247/26
f 131/160/25 133/159/25 155/247/25 154/245/25
f 129/161/24 131/160/24 154/245/24 153/242/24
f 127/162/23 129/161/23 153/242/23 152/241/23
f 125/163/28 127/162/28 152/241/28 151/289/28
f 123/165/29 125/163/29 151/289/29 150/290/29
f 121/167/30 123/169/30 150/291/30 149/227/30
f 119/170/21 121/167/21 149/227/21 148/225/21
f 117/171/20 119/170/20 148/225/20 147/223/20
f 115/172/19 117/171/19 147/223/19 146/220/19
f 113/173/18 115/172/18 146/220/18 145/219/18
f 111/174/17 113/175/17 145/217/17 144/215/17
f 109/176/16 111/174/16 144/215/16 143/213/16
f 107/177/15 109/176/15 143/213/15 142/211/15
f 105/178/14 107/177/14 142/211/14 141/208/14
f 103/179/13 105/178/13 141/208/13 140/207/13
f 101/180/12 103/181/12 140/205/12 139/203/12
f 99/182/11 101/180/11 139/203/11 138/200/11
f 97/158/10 99/182/10 138/200/10 137/199/10
f 161/292/1 162/293/1 157/294/1 158/295/1
f 162/293/1 163/296/1 159/297/1 157/294/1
f 163/296/1 164/298/1 160/299/1 159/297/1
f 122/260/7 158/300/7 157/301/7 124/261/7
f 150/236/6 162/235/6 161/302/6 149/303/6
f 152/304/6 164/305/6 163/234/6 151/233/6
f 124/261/7 157/301/7 159/238/7 126/237/7
f 149/227/31 161/306/31 158/307/31 122/228/31
