# Blender v2.78 (sub 0) OBJ File: 'Murph.blend'
# www.blender.org
mtllib oven.mtl
o Vert.022_Vert.021
v 2.074348 1.048393 -0.126626
v 2.074348 1.048393 0.635374
v 2.074348 1.066198 -0.126626
v 2.074348 1.066198 0.635374
v 2.074348 1.000134 0.635374
v 2.074348 1.000134 -0.126626
v 2.074348 1.730384 0.635374
v 2.074348 1.730384 -0.126626
v 2.074348 1.036195 0.635374
v 2.074348 1.036195 -0.126626
v 2.074348 1.028064 0.635374
v 2.074348 1.028064 -0.126626
v 2.054025 1.028064 -0.111282
v 2.054025 1.036195 -0.111282
v 2.054025 1.048393 0.619676
v 2.054025 1.048393 -0.111282
v 2.054025 1.066198 0.619676
v 2.054025 1.066198 -0.111282
v 2.054025 1.036195 0.619676
v 2.054025 1.028064 0.619676
v 2.074348 1.152351 0.635374
v 2.074348 1.166653 0.635374
v 2.074348 1.166653 -0.126626
v 2.074348 1.152351 -0.126626
v 2.074348 1.638070 0.635374
v 2.074348 1.642557 0.635374
v 2.074348 1.642557 -0.126626
v 2.074348 1.638070 -0.126626
v 2.069921 1.159502 -0.126626
v 2.069921 1.159502 0.635374
v 2.069921 1.640313 -0.126626
v 2.069921 1.640313 0.635374
v 2.048373 1.048393 -0.126626
v 2.048373 1.048393 0.635374
v 2.048373 1.066198 -0.126626
v 2.048373 1.066198 0.635374
v 2.048373 1.000134 0.635374
v 2.048373 1.000134 -0.126626
v 2.048373 1.730384 0.635374
v 2.048373 1.730384 -0.126626
v 2.048373 1.036195 0.635374
v 2.048373 1.036195 -0.126626
v 2.048373 1.028064 0.635374
v 2.048373 1.028064 -0.126626
v 2.048373 1.152351 0.635374
v 2.048373 1.166653 0.635374
v 2.048373 1.166653 -0.126626
v 2.048373 1.152351 -0.126626
v 2.048373 1.638070 0.635374
v 2.048373 1.642557 0.635374
v 2.048373 1.642557 -0.126626
v 2.048373 1.638070 -0.126626
v 2.043945 1.159502 -0.126626
v 2.043945 1.159502 0.635374
v 2.043945 1.640313 -0.126626
v 2.043945 1.640313 0.635374
vt 0.0000 0.0000
vt 0.0000 0.0000
vt 0.0000 0.0000
vt 0.0000 0.0000
vt 0.0001 0.0001
vt 0.9999 0.0001
vt 0.9999 0.0367
vt 0.0001 0.0367
vt 0.0001 0.0474
vt 0.9999 0.0474
vt 0.9999 0.0634
vt 0.0001 0.0634
vt 0.0001 0.0474
vt 0.9999 0.0474
vt 0.0001 0.0367
vt 0.9999 0.0367
vt 0.0001 0.0634
vt 0.9999 0.0634
vt 0.9999 0.0868
vt 0.0001 0.0868
vt 0.0000 0.0000
vt 0.0000 0.0000
vt 0.0000 0.0000
vt 0.0000 0.0000
vt 0.0000 0.0000
vt 0.0000 0.0000
vt 0.0000 0.0000
vt 0.0000 0.0000
vt 0.0000 0.0000
vt 0.0000 0.0000
vt 0.0000 0.0000
vt 0.0000 0.0000
vt 0.9999 0.0868
vt 0.0001 0.0868
vt 0.9999 0.2092
vt 0.0001 0.2092
vt 0.0001 0.1998
vt 0.9999 0.1998
vt 0.0001 0.2186
vt 0.9999 0.2186
vt 0.9999 0.8371
vt 0.0001 0.8371
vt 0.9999 0.8401
vt 0.0001 0.8401
vt 0.0001 0.8430
vt 0.9999 0.8430
vt 0.9999 0.9582
vt 0.0001 0.9582
vt 0.0001 0.1998
vt 0.0001 0.0868
vt 0.9999 0.0001
vt 0.9999 0.0367
vt 0.0001 0.8371
vt 0.0001 0.2186
vt 0.9999 0.9582
vt 0.0001 0.9582
vt 0.9999 0.0868
vt 0.9999 0.1998
vt 0.9999 0.2186
vt 0.9999 0.8371
vt 0.0001 0.0367
vt 0.0001 0.0001
vt 0.9999 0.8401
vt 0.9999 0.8430
vt 0.9999 0.2092
vt 0.0000 0.0000
vt 0.0000 0.0000
vt 0.0000 0.0000
vt 0.0000 0.0000
vt 0.0001 0.2092
vt 0.0001 0.8401
vt 0.0001 0.0634
vt 0.0001 0.0474
vt 0.0000 0.0000
vt 0.0000 0.0000
vt 0.0001 0.8430
vt 0.9999 0.0474
vt 0.9999 0.0634
vt 0.0000 0.0000
vt 0.0000 0.0000
vn 0.6025 0.0000 0.7981
vn 1.0000 0.0000 0.0000
vn 0.0000 -1.0000 0.0000
vn 0.6113 0.0000 -0.7914
vn -0.0000 1.0000 0.0000
vn 0.8502 0.5264 0.0000
vn 0.4520 0.8920 0.0000
vn 0.8502 -0.5264 0.0000
vn 0.4520 -0.8920 0.0000
vn 0.0000 0.0000 1.0000
vn 0.0000 0.0000 -1.0000
usemtl Oven
s off
f 1/1/1 3/2/1 18/3/1 16/4/1
f 5/5/2 6/6/2 12/7/2 11/8/2
f 9/9/2 10/10/2 1/11/2 2/12/2
f 10/10/3 9/9/3 19/13/3 14/14/3
f 20/15/2 13/16/2 14/14/2 19/13/2
f 15/17/2 16/18/2 18/19/2 17/20/2
f 4/21/4 2/22/4 15/23/4 17/24/4
f 11/8/5 12/7/5 13/16/5 20/15/5
f 9/25/4 11/26/4 20/27/4 19/28/4
f 2/12/5 1/11/5 16/18/5 15/17/5
f 12/29/1 10/30/1 14/31/1 13/32/1
f 3/33/3 4/34/3 17/20/3 18/19/3
f 29/35/6 30/36/6 21/37/6 24/38/6
f 4/34/2 3/33/2 24/38/2 21/37/2
f 22/39/2 23/40/2 28/41/2 25/42/2
f 31/43/7 32/44/7 25/42/7 28/41/7
f 26/45/2 27/46/2 8/47/2 7/48/2
f 23/40/8 22/39/8 30/36/8 29/35/8
f 27/46/9 26/45/9 32/44/9 31/43/9
f 4/34/10 21/37/10 45/49/10 36/50/10
f 12/7/11 6/6/11 38/51/11 44/52/11
f 22/39/10 25/42/10 49/53/10 46/54/10
f 7/48/5 8/47/5 40/55/5 39/56/5
f 24/38/11 3/33/11 35/57/11 48/58/11
f 28/41/11 23/40/11 47/59/11 52/60/11
f 5/5/10 11/8/10 43/61/10 37/62/10
f 27/46/11 31/43/11 55/63/11 51/64/11
f 29/35/11 24/38/11 48/58/11 53/65/11
f 2/22/10 4/21/10 36/66/10 34/67/10
f 10/30/11 12/29/11 44/68/11 42/69/11
f 23/40/11 29/35/11 53/65/11 47/59/11
f 30/36/10 22/39/10 46/54/10 54/70/10
f 25/42/10 32/44/10 56/71/10 49/53/10
f 9/9/10 2/12/10 34/72/10 41/73/10
f 3/2/11 1/1/11 33/74/11 35/75/11
f 21/37/10 30/36/10 54/70/10 45/49/10
f 31/43/11 28/41/11 52/60/11 55/63/11
f 26/45/10 7/48/10 39/56/10 50/76/10
f 1/11/11 10/10/11 42/77/11 33/78/11
f 32/44/10 26/45/10 50/76/10 56/71/10
f 11/26/10 9/25/10 41/79/10 43/80/10
f 8/47/11 27/46/11 51/64/11 40/55/11
f 6/6/3 5/5/3 37/62/3 38/51/3
